<svg width="37" height="22" viewBox="0 0 37 22" fill="none" xmlns="http://www.w3.org/2000/svg">
<path fill-rule="evenodd" clip-rule="evenodd" d="M12.1662 0.292894C11.7756 -0.097631 11.1425 -0.0976307 10.7519 0.292894L0.852455 10.1924C0.461929 10.5829 0.461929 11.2161 0.852455 11.6066L10.7519 21.5061C11.1425 21.8966 11.7756 21.8966 12.1662 21.5061C12.5567 21.1156 12.5567 20.4824 12.1662 20.0919L3.97136 11.8971C3.98087 11.8973 3.99042 11.8975 4 11.8975H36C36.5523 11.8975 37 11.4498 37 10.8975C37 10.3452 36.5523 9.89748 36 9.89748H4C3.99181 9.89748 3.98364 9.89758 3.97549 9.89777L12.1662 1.70711C12.5567 1.31658 12.5567 0.683418 12.1662 0.292894ZM3.00029 10.873C3.0001 10.8811 3 10.8893 3 10.8975C3 10.9071 3.00013 10.9166 3.0004 10.9261L2.97377 10.8995L3.00029 10.873Z" fill="#052E68"/>
</svg>
