<?xml version="1.0" encoding="UTF-8"?>
<svg width="16px" height="16px" viewBox="0 0 16 16" version="1.1" xmlns="http://www.w3.org/2000/svg" xmlns:xlink="http://www.w3.org/1999/xlink">
    <!-- Generator: Sketch 52.1 (67048) - http://www.bohemiancoding.com/sketch -->
    <title>Edit</title>
    <desc>Created with Sketch.</desc>
    <g id="Profile" stroke="none" stroke-width="1" fill="none" fill-rule="evenodd">
        <g id="Profile-page-cabinet_Desktop-1440" transform="translate(-1478.000000, -892.000000)" fill="#000000">
            <g id="Group-36" transform="translate(0.000000, -28.000000)">
                <g id="Form" transform="translate(329.000000, 322.000000)">
                    <g id="Group" transform="translate(315.000000, 491.000000)">
                        <g id="Group-2" transform="translate(30.000000, 87.000000)">
                            <g id="Group-15" transform="translate(803.000000, 19.000000)">
                                <path d="M15.642118,1.71888068 C14.6835253,0.760373107 13.1294077,0.760373107 12.170815,1.71888068 L2.43957581,11.4492562 C2.37288556,11.5159406 2.32473217,11.5986036 2.29959018,11.6893625 L1.01990413,16.3089048 C0.967276335,16.4983053 1.02075635,16.701128 1.1596767,16.840249 C1.29881006,16.979157 1.50165074,17.0326323 1.69106813,16.9802222 L6.31102041,15.7004367 C6.40178732,15.6752969 6.48445769,15.6271478 6.551148,15.5604635 L16.2821741,5.82987487 C17.2392753,4.87072814 17.2392753,3.31802677 16.2821741,2.35887998 L15.642118,1.71888068 Z M3.62806884,11.8037698 L11.5923355,3.83999688 L14.1608696,6.40830301 L6.19638983,14.372076 L3.62806884,11.8037698 Z M3.11500122,12.8332228 L5.16705862,14.8853111 L2.32856742,15.6716751 L3.11500122,12.8332228 Z M14.1634773,6.40749874 L11.5960206,3.84392735 L12.942334,2.49011819 C13.4747908,1.95770863 14.3381422,1.95770863 14.870599,2.49011819 L15.5108681,3.13011749 C16.0424727,3.6631662 16.0424727,4.52580174 15.5108681,5.05863736 L14.1634773,6.40749874 Z" id="Edit"></path>
                            </g>
                        </g>
                    </g>
                </g>
            </g>
        </g>
    </g>
</svg>