<?xml version="1.0" encoding="UTF-8"?>
<svg width="17px" height="17px" viewBox="0 0 17 17" version="1.1" xmlns="http://www.w3.org/2000/svg" xmlns:xlink="http://www.w3.org/1999/xlink">
    <!-- Generator: Sketch 52.1 (67048) - http://www.bohemiancoding.com/sketch -->
    <title>Edit</title>
    <desc>Created with Sketch.</desc>
    <defs>
        <linearGradient x1="98.0747768%" y1="0%" x2="0%" y2="100%" id="linearGradient-1">
            <stop stop-color="#ED6534" offset="2.70050578%"></stop>
            <stop stop-color="#DE4C3F" offset="100%"></stop>
        </linearGradient>
    </defs>
    <g id="Order-page" stroke="none" stroke-width="1" fill="none" fill-rule="evenodd">
        <g id="Order-page-Authorized_Desktop-1440" transform="translate(-1379.000000, -362.000000)" fill="url(#linearGradient-1)">
            <g id="Price" transform="translate(359.000000, 323.000000)">
                <g id="Group" transform="translate(811.000000, 0.000000)">
                    <g id="Group-15" transform="translate(190.000000, 28.000000)">
                        <path d="M31.8836959,11.8650743 C31.4800188,11.4613867 30.8257486,11.4608814 30.4215663,11.8640639 L21.8852359,20.3763672 C21.7675178,20.4940883 21.6796082,20.6385873 21.6290854,20.7977383 L19.9178785,26.2154394 C19.8016762,26.5837602 19.9001955,26.9859321 20.1730186,27.2587624 C20.4458416,27.5320979 20.848003,27.6301147 21.2163143,27.5139091 L26.634378,25.8026574 C26.7930197,25.7526385 26.9375148,25.6647266 27.055233,25.5465001 L35.5678177,17.0099452 C35.9709895,16.6057523 35.9704843,15.9514649 35.5668071,15.5477773 L31.8836959,11.8650743 Z M23.0886888,23.0460615 L24.386114,24.3430157 L22.4904989,24.9417264 L23.0886888,23.0460615 Z M26.3211369,23.3517324 L24.0799458,21.1099774 L31.1506102,14.0588316 L33.3720972,16.2808822 L26.3211369,23.3517324 Z" id="Edit"></path>
                    </g>
                </g>
            </g>
        </g>
    </g>
</svg>