<svg xmlns="http://www.w3.org/2000/svg" width="25" height="30" viewBox="0 0 25 30">
    <g fill="#5FA9FF" fill-rule="evenodd">
        <path fill-rule="nonzero" d="M23.766 9.047l-8.79-8.79a.879.879 0 0 0-.62-.257H.878A.879.879 0 0 0 0 .879V29.12c0 .485.394.879.879.879h22.266a.879.879 0 0 0 .878-.879V9.668a.879.879 0 0 0-.257-.621zm-1.5 19.195H1.758V1.758H13.99l8.275 8.274v18.21z"/>
        <path d="M14.941 14.121h-2.05v-2.05a.879.879 0 0 0-1.758 0v2.05H9.082a.879.879 0 0 0 0 1.758h2.05v2.05a.879.879 0 0 0 1.759 0v-2.05h2.05a.879.879 0 0 0 0-1.758z"/>
    </g>
</svg>
