<?xml version="1.0" encoding="utf-8"?>
<!-- Generator: Adobe Illustrator 21.0.0, SVG Export Plug-In . SVG Version: 6.00 Build 0)  -->
<svg version="1.1" id="Layer_1" xmlns="http://www.w3.org/2000/svg" xmlns:xlink="http://www.w3.org/1999/xlink" x="0px" y="0px"
	 viewBox="0 0 21 19.3" style="enable-background:new 0 0 21 19.3;" xml:space="preserve">
<style type="text/css">
	.st0{fill:#5FA9FF;}
</style>
<path id="Filter-icon" class="st0" d="M5.1,7.1l3.7,4.1v6.1l3.4-1.7v-4.4l3.7-4.1c-1.5,0.2-3.4,0.3-5.4,0.3S6.6,7.3,5.1,7.1z
	 M20.8,4.8c-0.2,0.5-0.6,0.8-1.1,1.2l-5.5,6v3.6c0,0.8-0.4,1.5-1.1,1.8l-3.4,1.7c-1.3,0.7-2.9-0.3-2.9-1.8V12L1.3,6
	C0.8,5.6,0.5,5.2,0.2,4.8C0.1,4.5,0,4.1,0,3.7C0,0.8,4.2,0,10.5,0S21,0.8,21,3.7C21,4.1,20.9,4.5,20.8,4.8z M10.5,5.4
	c4.7,0,8.5-0.8,8.5-1.7S15.2,2,10.5,2S2,2.8,2,3.7S5.8,5.4,10.5,5.4z"/>
</svg>
