<svg width="13" height="20" viewBox="0 0 13 20" fill="none" xmlns="http://www.w3.org/2000/svg">
<path fill-rule="evenodd" clip-rule="evenodd" d="M9 1H4C2.34315 1 1 2.34315 1 4V16C1 17.6569 2.34315 19 4 19H9C10.6569 19 12 17.6569 12 16V4C12 2.34315 10.6569 1 9 1ZM4 0C1.79086 0 0 1.79086 0 4V16C0 18.2091 1.79086 20 4 20H9C11.2091 20 13 18.2091 13 16V4C13 1.79086 11.2091 0 9 0H4Z" fill="#096ED1"/>
<path d="M6 12.5C6 12.2239 6.22386 12 6.5 12C6.77614 12 7 12.2239 7 12.5V14.5C7 14.7761 6.77614 15 6.5 15C6.22386 15 6 14.7761 6 14.5V12.5Z" fill="white"/>
</svg>
