<svg width="73" height="74" viewBox="0 0 73 74" fill="none" xmlns="http://www.w3.org/2000/svg">
<g filter="url(#filter0_d)">
<path fill-rule="evenodd" clip-rule="evenodd" d="M36.1428 47C47.1885 47 56.1428 38.0457 56.1428 27C56.1428 15.9543 47.1885 7 36.1428 7V47Z" fill="white"/>
</g>
<g filter="url(#filter1_d)">
<path fill-rule="evenodd" clip-rule="evenodd" d="M36.1429 44.1429C45.6106 44.1429 53.2857 36.4678 53.2857 27C53.2857 17.5323 45.6106 9.85718 36.1429 9.85718C26.6751 9.85718 19 17.5323 19 27C19 36.4678 26.6751 44.1429 36.1429 44.1429Z" fill="#5FA9FF"/>
</g>
<path fill-rule="evenodd" clip-rule="evenodd" d="M32.058 19.3377C32.4485 18.9472 33.0817 18.9472 33.4722 19.3377L40.5433 26.4088C40.9338 26.7993 40.9338 27.4324 40.5433 27.823L33.4722 34.894C33.0817 35.2846 32.4485 35.2846 32.058 34.894C31.6675 34.5035 31.6675 33.8704 32.058 33.4798L37.4244 28.1135C37.4149 28.1137 37.4053 28.1139 37.3958 28.1139L15.3958 28.1139C14.8435 28.1139 14.3958 27.6661 14.3958 27.1139C14.3958 26.5616 14.8435 26.1139 15.3958 26.1139L37.3958 26.1139C37.4039 26.1139 37.4121 26.114 37.4203 26.1141L32.058 20.7519C31.6675 20.3614 31.6675 19.7282 32.058 19.3377ZM38.3955 27.0893C38.3957 27.0975 38.3958 27.1057 38.3958 27.1139C38.3958 27.1234 38.3956 27.133 38.3953 27.1425L38.422 27.1159L38.3955 27.0893Z" fill="white"/>
<defs>
<filter id="filter0_d" x="27.1428" y="1" width="38" height="58" filterUnits="userSpaceOnUse" color-interpolation-filters="sRGB">
<feFlood flood-opacity="0" result="BackgroundImageFix"/>
<feColorMatrix in="SourceAlpha" type="matrix" values="0 0 0 0 0 0 0 0 0 0 0 0 0 0 0 0 0 0 127 0"/>
<feOffset dy="3"/>
<feGaussianBlur stdDeviation="4.5"/>
<feColorMatrix type="matrix" values="0 0 0 0 0.0798388 0 0 0 0 0.270297 0 0 0 0 0.539727 0 0 0 1 0"/>
<feBlend mode="normal" in2="BackgroundImageFix" result="effect1_dropShadow"/>
<feBlend mode="normal" in="SourceGraphic" in2="effect1_dropShadow" result="shape"/>
</filter>
<filter id="filter1_d" x="0" y="0.857178" width="72.2857" height="72.2857" filterUnits="userSpaceOnUse" color-interpolation-filters="sRGB">
<feFlood flood-opacity="0" result="BackgroundImageFix"/>
<feColorMatrix in="SourceAlpha" type="matrix" values="0 0 0 0 0 0 0 0 0 0 0 0 0 0 0 0 0 0 127 0"/>
<feOffset dy="10"/>
<feGaussianBlur stdDeviation="9.5"/>
<feColorMatrix type="matrix" values="0 0 0 0 0.372549 0 0 0 0 0.662745 0 0 0 0 1 0 0 0 0.187783 0"/>
<feBlend mode="normal" in2="BackgroundImageFix" result="effect1_dropShadow"/>
<feBlend mode="normal" in="SourceGraphic" in2="effect1_dropShadow" result="shape"/>
</filter>
</defs>
</svg>
