<svg width="86" height="87" viewBox="0 0 86 87" fill="none" xmlns="http://www.w3.org/2000/svg">
<g filter="url(#filter0_d)">
<path fill-rule="evenodd" clip-rule="evenodd" d="M43 62C58.464 62 71 49.464 71 34C71 18.536 58.464 6 43 6V62Z" fill="#5FA9FF"/>
</g>
<g filter="url(#filter1_d)">
<path fill-rule="evenodd" clip-rule="evenodd" d="M43 58C56.2548 58 67 47.2548 67 34C67 20.7452 56.2548 10 43 10C29.7452 10 19 20.7452 19 34C19 47.2548 29.7452 58 43 58Z" fill="white"/>
</g>
<path fill-rule="evenodd" clip-rule="evenodd" d="M38.8338 23.2929C39.2244 22.9024 39.8575 22.9024 40.2481 23.2929L50.1475 33.1924C50.5381 33.5829 50.5381 34.2161 50.1475 34.6066L40.2481 44.5061C39.8575 44.8966 39.2244 44.8966 38.8338 44.5061C38.4433 44.1156 38.4433 43.4824 38.8338 43.0919L47.0286 34.8971C47.0191 34.8973 47.0096 34.8975 47 34.8975H15C14.4477 34.8975 14 34.4498 14 33.8975C14 33.3452 14.4477 32.8975 15 32.8975H47C47.0082 32.8975 47.0164 32.8976 47.0245 32.8978L38.8338 24.7071C38.4433 24.3166 38.4433 23.6834 38.8338 23.2929ZM47.9997 33.873C47.9999 33.8811 48 33.8893 48 33.8975C48 33.9071 47.9999 33.9166 47.9996 33.9261L48.0262 33.8995L47.9997 33.873Z" fill="#052E68"/>
<defs>
<filter id="filter0_d" x="34" y="0" width="46" height="74" filterUnits="userSpaceOnUse" color-interpolation-filters="sRGB">
<feFlood flood-opacity="0" result="BackgroundImageFix"/>
<feColorMatrix in="SourceAlpha" type="matrix" values="0 0 0 0 0 0 0 0 0 0 0 0 0 0 0 0 0 0 127 0"/>
<feOffset dy="3"/>
<feGaussianBlur stdDeviation="4.5"/>
<feColorMatrix type="matrix" values="0 0 0 0 0.372549 0 0 0 0 0.662745 0 0 0 0 1 0 0 0 1 0"/>
<feBlend mode="normal" in2="BackgroundImageFix" result="effect1_dropShadow"/>
<feBlend mode="normal" in="SourceGraphic" in2="effect1_dropShadow" result="shape"/>
</filter>
<filter id="filter1_d" x="0" y="1" width="86" height="86" filterUnits="userSpaceOnUse" color-interpolation-filters="sRGB">
<feFlood flood-opacity="0" result="BackgroundImageFix"/>
<feColorMatrix in="SourceAlpha" type="matrix" values="0 0 0 0 0 0 0 0 0 0 0 0 0 0 0 0 0 0 127 0"/>
<feOffset dy="10"/>
<feGaussianBlur stdDeviation="9.5"/>
<feColorMatrix type="matrix" values="0 0 0 0 0.372549 0 0 0 0 0.662745 0 0 0 0 1 0 0 0 0.187783 0"/>
<feBlend mode="normal" in2="BackgroundImageFix" result="effect1_dropShadow"/>
<feBlend mode="normal" in="SourceGraphic" in2="effect1_dropShadow" result="shape"/>
</filter>
</defs>
</svg>
