<svg id="svg-sprite" style="position:absolute; left: -20000px; top: -20000px;" plainSprite xmlns="http://www.w3.org/2000/svg" xmlns:xlink="http://www.w3.org/1999/xlink"><defs><style>
    .sprite-symbol-usage {display: none;}
    .sprite-symbol-usage:target {display: inline;}
  </style><symbol viewBox="0 0 11 6" id="arrow"><path d="M7.82842712,2.12132034 L8.53553391,2.82842712 L3.70710678,7.65685425 L3,6.94974747 L7.12132034,2.82842712 L3,-1.29289322 L3.70710678,-2 L7.82842712,2.12132034 Z" transform="rotate(90 5.768 2.828)" /></symbol><symbol viewBox="0 0 13 9" id="checkmark"><path d="M14,14 L14,7 C14,6.44771525 14.4477153,6 15,6 C15.5522847,6 16,6.44771525 16,7 L16,15 C16,15.5522847 15.5522847,16 15,16 L10,16 C9.44771525,16 9,15.5522847 9,15 C9,14.4477153 9.44771525,14 10,14 L14,14 Z" transform="rotate(45 19.157 -.243)" /></symbol><symbol viewBox="0 0 15.642 15.642" id="close"><path d="M8.882,7.821l6.541-6.541c0.293-0.293,0.293-0.768,0-1.061 c-0.293-0.293-0.768-0.293-1.061,0L7.821,6.76L1.28,0.22c-0.293-0.293-0.768-0.293-1.061,0c-0.293,0.293-0.293,0.768,0,1.061 l6.541,6.541L0.22,14.362c-0.293,0.293-0.293,0.768,0,1.061c0.147,0.146,0.338,0.22,0.53,0.22s0.384-0.073,0.53-0.22l6.541-6.541 l6.541,6.541c0.147,0.146,0.338,0.22,0.53,0.22c0.192,0,0.384-0.073,0.53-0.22c0.293-0.293,0.293-0.768,0-1.061L8.882,7.821z" /></symbol><symbol viewBox="0 0 44.238 44.238" id="download"><path d="M22.119,44.237C9.923,44.237,0,34.315,0,22.119S9.923,0.001,22.119,0.001c12.195,0,22.119,9.922,22.119,22.118 S34.314,44.237,22.119,44.237z M22.119,1.501C10.75,1.501,1.5,10.75,1.5,22.119c0,11.368,9.25,20.618,20.619,20.618 s20.619-9.25,20.619-20.618C42.738,10.75,33.488,1.501,22.119,1.501z" /><path d="M22.119 25.329c-.414 0-.75-.336-.75-.75V12.952c0-.414.336-.75.75-.75s.75.336.75.75v11.627C22.869 24.993 22.533 25.329 22.119 25.329zM31.434 30.165H12.805c-.414 0-.75-.336-.75-.75s.336-.75.75-.75h18.628c.414 0 .75.336.75.75S31.848 30.165 31.434 30.165z" /><path d="M22.119,25.329c-0.191,0-0.384-0.073-0.529-0.219l-3.334-3.326c-0.294-0.293-0.294-0.768-0.002-1.061 c0.292-0.294,0.769-0.294,1.061-0.002l3.334,3.326c0.294,0.293,0.294,0.769,0.002,1.062 C22.504,25.256,22.312,25.329,22.119,25.329z" /><path d="M22.119,25.329c-0.192,0-0.385-0.073-0.531-0.221c-0.292-0.293-0.292-0.769,0.002-1.062l3.334-3.326 c0.292-0.292,0.77-0.292,1.061,0.002c0.293,0.293,0.293,0.768-0.002,1.061l-3.333,3.326 C22.503,25.256,22.311,25.329,22.119,25.329z" /></symbol><symbol viewBox="0 0 13 20" id="scroll"><path d="M9 1H4C2.34315 1 1 2.34315 1 4V16C1 17.6569 2.34315 19 4 19H9C10.6569 19 12 17.6569 12 16V4C12 2.34315 10.6569 1 9 1ZM4 0C1.79086 0 0 1.79086 0 4V16C0 18.2091 1.79086 20 4 20H9C11.2091 20 13 18.2091 13 16V4C13 1.79086 11.2091 0 9 0H4Z" /><path d="M6 12.5C6 12.2239 6.22386 12 6.5 12C6.77614 12 7 12.2239 7 12.5V14.5C7 14.7761 6.77614 15 6.5 15C6.22386 15 6 14.7761 6 14.5V12.5Z" /></symbol></defs><use id="arrow-usage" xlink:href="#arrow" class="sprite-symbol-usage" /><use id="checkmark-usage" xlink:href="#checkmark" class="sprite-symbol-usage" /><use id="close-usage" xlink:href="#close" class="sprite-symbol-usage" /><use id="download-usage" xlink:href="#download" class="sprite-symbol-usage" /><use id="scroll-usage" xlink:href="#scroll" class="sprite-symbol-usage" /></svg>