<svg id="svg-sprite" style="position:absolute; left: -20000px; top: -20000px;" plainSprite xmlns="http://www.w3.org/2000/svg" xmlns:xlink="http://www.w3.org/1999/xlink"><defs><style>
    .sprite-symbol-usage {display: none;}
    .sprite-symbol-usage:target {display: inline;}
  </style><symbol viewBox="0 0 11 6" id="arrow"><path d="M7.82842712,2.12132034 L8.53553391,2.82842712 L3.70710678,7.65685425 L3,6.94974747 L7.12132034,2.82842712 L3,-1.29289322 L3.70710678,-2 L7.82842712,2.12132034 Z" transform="rotate(90 5.768 2.828)" /></symbol><symbol viewBox="0 0 13 9" id="checkmark"><path d="M14,14 L14,7 C14,6.44771525 14.4477153,6 15,6 C15.5522847,6 16,6.44771525 16,7 L16,15 C16,15.5522847 15.5522847,16 15,16 L10,16 C9.44771525,16 9,15.5522847 9,15 C9,14.4477153 9.44771525,14 10,14 L14,14 Z" transform="rotate(45 19.157 -.243)" /></symbol><symbol viewBox="0 0 212.982 212.982" id="close-modal"><path d="M131.804,106.491l75.936-75.936c6.99-6.99,6.99-18.323,0-25.312 c-6.99-6.99-18.322-6.99-25.312,0l-75.937,75.937L30.554,5.242c-6.99-6.99-18.322-6.99-25.312,0c-6.989,6.99-6.989,18.323,0,25.312 l75.937,75.936L5.242,182.427c-6.989,6.99-6.989,18.323,0,25.312c6.99,6.99,18.322,6.99,25.312,0l75.937-75.937l75.937,75.937 c6.989,6.99,18.322,6.99,25.312,0c6.99-6.99,6.99-18.322,0-25.312L131.804,106.491z" /></symbol></defs><use id="arrow-usage" xlink:href="#arrow" class="sprite-symbol-usage" /><use id="checkmark-usage" xlink:href="#checkmark" class="sprite-symbol-usage" /><use id="close-modal-usage" xlink:href="#close-modal" class="sprite-symbol-usage" /></svg>